<?xml version="1.0" encoding="utf-8"?>
<!-- Generator: Adobe Illustrator 26.0.1, SVG Export Plug-In . SVG Version: 6.00 Build 0)  -->
<svg version="1.1" id="Layer_1" xmlns="http://www.w3.org/2000/svg" xmlns:xlink="http://www.w3.org/1999/xlink" x="0px" y="0px"
	 viewBox="0 0 5000 1188" style="enable-background:new 0 0 5000 1188;" xml:space="preserve">
<style type="text/css">
	.st0{fill:#3F4040;}
	.st1{fill:#FC004E;}
	.st2{fill:#FFFFFF;}
</style>
<g>
	<g>
		<g>
			<polygon class="st0" points="4179.31,1117.95 861.89,1104.61 1133.93,136.05 3707.99,335.04 			"/>
			<polygon class="st1" points="3836.75,945.85 990.61,996.2 820.69,332.59 4102.49,199.14 			"/>
		</g>
		<g>
			<path class="st2" d="M1608.8,782.5l-28.59-66.42h-128.89l-28.59,66.42h-73.02l132.85-307.48h66.42l132.85,307.48H1608.8z
				 M1515.99,566.52l-38.71,89.3h76.98L1515.99,566.52z"/>
			<path class="st2" d="M1852.06,782.5h-134.61V475.02h119.65c20.82,0,38.78,2.49,53.89,7.48c15.1,4.99,26.46,11.73,34.09,20.23
				c13.78,15.84,20.67,33.73,20.67,53.67c0,24.05-7.77,41.94-23.31,53.67c-5.28,4.11-8.95,6.67-11,7.7c-2.06,1.03-5.72,2.71-11,5.06
				c19.06,4.11,34.24,12.69,45.53,25.73c11.29,13.05,16.94,29.25,16.94,48.61c0,21.41-7.33,40.33-21.99,56.75
				C1923.9,772.97,1894.29,782.5,1852.06,782.5z M1786.08,599.51h32.55c19.06,0,33.21-2.05,42.45-6.16
				c9.24-4.1,13.86-12.98,13.86-26.61c0-13.64-4.25-22.65-12.76-27.05c-8.51-4.4-22.87-6.6-43.11-6.6h-32.99V599.51z
				 M1786.08,724.43h47.07c19.64,0,34.38-2.42,44.21-7.26c9.82-4.84,14.74-14.36,14.74-28.59c0-14.22-5.21-23.6-15.62-28.15
				c-10.41-4.54-27.05-6.82-49.93-6.82h-40.47V724.43z"/>
			<path class="st2" d="M2279.19,740.05c-31.09,30.35-69.36,45.53-114.81,45.53c-45.46,0-83.73-15.18-114.81-45.53
				c-31.09-30.35-46.63-68.11-46.63-113.27c0-45.16,15.54-82.92,46.63-113.27c31.08-30.35,69.35-45.53,114.81-45.53
				c45.45,0,83.72,15.18,114.81,45.53c31.08,30.35,46.63,68.11,46.63,113.27C2325.82,671.94,2310.27,709.7,2279.19,740.05z
				 M2255.87,627c0-27.42-8.8-50.81-26.39-70.16c-17.6-19.35-39.22-29.03-64.88-29.03c-25.67,0-47.29,9.68-64.88,29.03
				c-17.6,19.36-26.39,42.74-26.39,70.16c0,27.42,8.8,50.74,26.39,69.94c17.6,19.21,39.22,28.81,64.88,28.81
				c25.66,0,47.29-9.6,64.88-28.81C2247.07,677.74,2255.87,654.42,2255.87,627z"/>
			<path class="st2" d="M2465.25,703.1c11.44,14.23,26.83,21.33,46.19,21.33s34.68-7.11,45.97-21.33
				c11.28-14.22,16.94-33.65,16.94-58.29v-169.8h68.62v172c0,44.58-12.32,78.82-36.95,102.71c-24.63,23.91-56.16,35.85-94.58,35.85
				c-38.42,0-70.02-12.02-94.8-36.07c-24.79-24.04-37.17-58.21-37.17-102.49v-172h68.62v169.8
				C2448.1,669.45,2453.82,688.88,2465.25,703.1z"/>
			<path class="st2" d="M2844.43,534.4v248.1h-68.62V534.4h-87.1v-59.38h242.82v59.38H2844.43z"/>
			<path class="st2" d="M3179.18,703.1c11.44,14.23,26.83,21.33,46.19,21.33s34.68-7.11,45.97-21.33
				c11.29-14.22,16.94-33.65,16.94-58.29v-169.8h68.62v172c0,44.58-12.32,78.82-36.95,102.71c-24.63,23.91-56.16,35.85-94.58,35.85
				c-38.42,0-70.02-12.02-94.8-36.07c-24.79-24.04-37.17-58.21-37.17-102.49v-172h68.62v169.8
				C3162.02,669.45,3167.74,688.88,3179.18,703.1z"/>
			<path class="st2" d="M3500.07,536.38c-6.6,5.43-9.9,12.61-9.9,21.55c0,8.95,4.03,16.06,12.1,21.33
				c8.06,5.28,26.68,11.51,55.87,18.7c29.18,7.19,51.83,17.97,67.96,32.33c16.12,14.37,24.19,35.34,24.19,62.9
				c0,27.57-10.34,49.93-31.01,67.08c-20.67,17.16-47.88,25.73-81.6,25.73c-48.68,0-92.53-18.04-131.53-54.11l40.91-50.15
				c33.14,29.03,63.78,43.55,91.94,43.55c12.61,0,22.5-2.71,29.69-8.14c7.18-5.42,10.78-12.76,10.78-21.99
				c0-9.24-3.81-16.56-11.44-21.99c-7.63-5.42-22.73-10.92-45.31-16.5c-35.78-8.5-61.96-19.58-78.52-33.21
				c-16.57-13.64-24.85-35.04-24.85-64.22c0-29.18,10.48-51.69,31.45-67.52c20.96-15.84,47.14-23.75,78.52-23.75
				c20.52,0,41.05,3.52,61.58,10.56c20.52,7.04,38.42,17.01,53.67,29.91l-34.75,50.15c-26.69-20.23-54.26-30.35-82.7-30.35
				C3515.69,528.25,3506.67,530.96,3500.07,536.38z"/>
		</g>
	</g>
</g>
</svg>
