<svg xmlns="http://www.w3.org/2000/svg" viewBox="0 0 510.16 179.62"><defs><style>.cls-1{fill:#05e6e0;}.cls-2{fill:#e61e21;}.cls-3{fill:#fff;}</style></defs><g id="Layer_2" data-name="Layer 2"><g id="Admission"><g id="Admission-2" data-name="Admission"><polygon class="cls-1" points="59.12 0 49.2 35.59 277.28 26.69 59.12 0"/><polygon class="cls-1" points="510.16 169.11 451.47 77.59 410.75 143.27 64.97 161.05 31.82 98.02 9.1 179.62 510.16 169.11"/><path class="cls-2" d="M277.28,26.69,49.2,35.59,0,37.52,31.82,98l33.15,63,345.78-17.78L451.47,77.6l36.67-59.15Zm56.6,66.86c0-7.11,3.55-11.59,9.14-11.59h0c-5.59,0-9.14,4.48-9.14,11.59,0,6.94,3.47,11.25,9.05,11.25h0C337.35,104.8,333.88,100.49,333.88,93.55Z"/><path class="cls-3" d="M132.83,90.6v22.18h-11V69.58h10.87L143.7,88.11l11-18.53h10.87v43.2H154.58V90.68l-9.35,15.78h-3.06Z"/><path class="cls-3" d="M205.07,69.58,193.55,95.25v17.53h-11V95.25L171.08,69.58H182.6l5.48,12.71,5.47-12.71Z"/><path class="cls-3" d="M224.32,91.51c0-12.87,9-22.51,20.86-22.51a21.78,21.78,0,0,1,11.51,3.07L251,81.54a10.13,10.13,0,0,0-5.23-1.41c-6.2,0-10.15,5-10.15,11.3s4,10.8,10,10.8a10.77,10.77,0,0,0,6.12-2l5.72,9.31a21.23,21.23,0,0,1-12.16,3.82C232.77,113.36,224.32,104.3,224.32,91.51Z"/><path class="cls-3" d="M272.24,69.58h13.93l12.16,43.2H287l-1-4.07H272.4l-1,4.07H260Zm11.11,29.24-4.19-16.61-4.27,16.61Z"/><path class="cls-3" d="M304.05,69.58h12.64c8.86,0,22,0,22,15.45,0,8-3.63,11.8-8.3,13.71l9.51,14H327.4l-7.81-12.21H315v12.21H304.05ZM315,80.21V90.6h4.75c4.11,0,7.65,0,7.65-5.24s-3.78-5.15-7.65-5.15Z"/><path class="cls-3" d="M375.72,69.58v10.8h-9.34v32.4H355.43V80.38h-9.34V69.58Z"/></g></g></g></svg>