<svg xmlns="http://www.w3.org/2000/svg" viewBox="0 0 510.16 179.62"><defs><style>.cls-1{fill:#05e6e0;}.cls-2{fill:#e61e21;}.cls-3{fill:#fff;}</style></defs><g id="Layer_2" data-name="Layer 2"><g id="Admission"><g id="Admission-2" data-name="Admission"><polygon class="cls-1" points="59.12 0 49.2 35.59 277.28 26.69 59.12 0"/><polygon class="cls-1" points="510.16 169.11 451.47 77.59 410.75 143.27 64.97 161.05 31.82 98.02 9.1 179.62 510.16 169.11"/><polygon class="cls-2" points="277.28 26.69 49.2 35.59 0 37.52 31.82 98.02 64.97 161.05 410.75 143.27 451.47 77.59 488.14 18.45 277.28 26.69"/><path class="cls-3" d="M52,91.82c0-10.31,7.22-18,16.7-18A17.38,17.38,0,0,1,78,76.26l-4.57,7.58a8.15,8.15,0,0,0-4.2-1.13c-5,0-8.12,4-8.12,9.05s3.22,8.64,8,8.64A8.73,8.73,0,0,0,74,98.81l4.57,7.45a17,17,0,0,1-9.73,3.06C58.81,109.32,52,102.07,52,91.82Z"/><path class="cls-3" d="M113.69,91.09c0,11-6.26,18.23-15.93,18.23S82,102.46,82,91.89c0-11,6.32-18.09,16.12-18.09C107.56,73.8,113.69,80.58,113.69,91.09Zm-9,.4c0-5.45-2.58-8.91-6.71-8.91s-7,3.52-7,9.11,2.64,8.85,6.9,8.85S104.66,97.08,104.66,91.49Z"/><path class="cls-3" d="M128.39,74.26l9.93,17v-17h8.77v34.59h-8.71l-10-17.09v17.09h-8.77V74.26Z"/><path class="cls-3" d="M177,74.26v8.65h-15v6.65h11.22v8.65H162.05v10.64h-8.77V74.26Z"/><path class="cls-3" d="M192,74.26v34.59H183.2V74.26Z"/><path class="cls-3" d="M198.15,74.26h10.13c7.09,0,17.6,0,17.6,12.37,0,6.39-2.9,9.45-6.64,11l7.61,11.24h-10l-6.26-9.78h-3.67v9.78h-8.78Zm8.78,8.52v8.31h3.8c3.29,0,6.13,0,6.13-4.19s-3-4.12-6.13-4.12Z"/><path class="cls-3" d="M240.58,91.09v17.76h-8.77V74.26h8.71l8.77,14.84,8.77-14.84h8.7v34.59H258V91.16l-7.48,12.63h-2.45Z"/><path class="cls-3" d="M281.14,74.26H292.3L302,108.85h-9.1l-.84-3.26H281.27l-.84,3.26h-9.09ZM290,97.68l-3.35-13.31-3.42,13.31Z"/><path class="cls-3" d="M326.6,74.26v8.65h-7.48v25.94h-8.77V82.91h-7.48V74.26Z"/><path class="cls-3" d="M341.56,74.26v34.59h-8.77V74.26Z"/><path class="cls-3" d="M379.22,91.09c0,11-6.25,18.23-15.93,18.23s-15.8-6.86-15.8-17.43c0-11,6.32-18.09,16.12-18.09C373.09,73.8,379.22,80.58,379.22,91.09Zm-9,.4c0-5.45-2.58-8.91-6.7-8.91s-7,3.52-7,9.11,2.65,8.85,6.9,8.85S370.19,97.08,370.19,91.49Z"/><path class="cls-3" d="M393.92,74.26l9.93,17v-17h8.77v34.59h-8.7l-10-17.09v17.09h-8.77V74.26Z"/></g></g></g></svg>