<svg xmlns="http://www.w3.org/2000/svg" viewBox="0 0 510.16 179.62"><defs><style>.cls-1{fill:#fff;}.cls-2{fill:#e61e21;}.cls-3{fill:#05e6e0;}</style></defs><g id="Layer_2" data-name="Layer 2"><g id="Vendor"><path class="cls-1" d="M320.33,111.59h4.83l8.2,12.43h13.11l-10-14.29c4.91-2,8.71-5.84,8.71-14C345.2,80,331.42,80,322.11,80H308.83v44h11.5Zm0-20.73h5c4.07,0,8,0,8,5.25s-3.72,5.33-8,5.33h-5Z"/><path class="cls-1" d="M367.87,114a20.7,20.7,0,0,1-11.5-4.06l-4.82,9.55a28.21,28.21,0,0,0,16.83,5.17c9.81,0,16-5.08,16-13.29,0-14.8-19.88-13.87-19.88-19,0-1.18,1.18-2.2,3.89-2.2,3.89,0,7.44,1.61,10.66,3.55l4.65-9.39a25.94,25.94,0,0,0-15.23-4.82c-9.72,0-15.73,5.42-15.73,12.78,0,14,19.88,14.38,19.88,19.37C372.61,113,371.09,114,367.87,114Z"/><path class="cls-2" d="M333.36,96.11c0-5.25-4-5.25-8-5.25h-5v10.58h5C329.64,101.44,333.36,101.44,333.36,96.11Z"/><polygon class="cls-3" points="510.16 169.11 451.47 77.59 410.75 143.27 64.97 161.05 31.82 98.02 9.1 179.62 510.16 169.11"/><path class="cls-2" d="M240.15,101.77C240.15,91,232.7,91,227.37,91h-.25v22.16H228C233.55,113.11,240.15,113.11,240.15,101.77Z"/><polygon class="cls-3" points="59.12 0 49.2 35.59 277.28 26.69 59.12 0"/><path class="cls-2" d="M410.75,143.27,451.47,77.6l36.67-59.15L277.28,26.69,49.2,35.59,0,37.52,31.82,98l33.15,63Zm-58-51.05c0-7.36,6-12.78,15.73-12.78a25.94,25.94,0,0,1,15.23,4.82L379,93.65c-3.22-1.94-6.77-3.55-10.66-3.55-2.71,0-3.89,1-3.89,2.2,0,5.16,19.88,4.23,19.88,19,0,8.21-6.18,13.29-16,13.29a28.21,28.21,0,0,1-16.83-5.17l4.82-9.55a20.7,20.7,0,0,0,11.5,4.06c3.22,0,4.74-.93,4.74-2.37C372.61,106.6,352.73,106.26,352.73,92.22ZM308.83,80h13.28c9.31,0,23.09,0,23.09,15.74,0,8.12-3.8,12-8.71,14l10,14.29H333.36l-8.2-12.43h-4.83V124h-11.5Zm-28.25-.59c12.43,0,20.47,8.63,20.47,22,0,14-8.21,23.18-20.89,23.18-12.52,0-20.73-8.72-20.73-22.17C259.43,88.49,267.72,79.44,280.58,79.44Zm-65,.59H227.2c6.26,0,24.79,0,24.79,21.74C252,124,234.39,124,227.8,124H215.61Zm-44.15,0H183l13,21.66V80H207.5v44H196.08L183,102.28V124h-11.5Zm-39.25,0h31.13V91H143.71v5.83h14.72V107.1H143.71v6h19.63V124H132.21ZM98,80l8.21,30.63L114.28,80h12l-12.86,44H98.8L85.94,80Z"/><path class="cls-2" d="M280.32,113.45c5.42,0,8.89-4.4,8.89-11.51,0-6.93-3.39-11.33-8.8-11.33-5.58,0-9.14,4.48-9.14,11.59C271.27,109.13,274.74,113.45,280.32,113.45Z"/><polygon class="cls-1" points="113.43 124.02 126.29 80.03 114.28 80.03 106.16 110.66 97.95 80.03 85.94 80.03 98.8 124.02 113.43 124.02"/><polygon class="cls-1" points="163.34 113.11 143.71 113.11 143.71 107.1 158.43 107.1 158.43 96.78 143.71 96.78 143.71 90.95 163.34 90.95 163.34 80.03 132.21 80.03 132.21 124.02 163.34 124.02 163.34 113.11"/><polygon class="cls-1" points="182.96 102.28 196.08 124.02 207.5 124.02 207.5 80.03 195.99 80.03 195.99 101.69 182.96 80.03 171.46 80.03 171.46 124.02 182.96 124.02 182.96 102.28"/><path class="cls-1" d="M252,101.77C252,80,233.46,80,227.2,80H215.61v44H227.8C234.39,124,252,124,252,101.77ZM227.12,91h.25c5.33,0,12.78,0,12.78,10.82,0,11.34-6.6,11.34-12.19,11.34h-.84Z"/><path class="cls-1" d="M280.16,124.62c12.68,0,20.89-9.14,20.89-23.18,0-13.37-8-22-20.47-22-12.86,0-21.15,9-21.15,23C259.43,115.9,267.64,124.62,280.16,124.62Zm.25-34c5.41,0,8.8,4.4,8.8,11.33,0,7.11-3.47,11.51-8.89,11.51-5.58,0-9.05-4.32-9.05-11.25C271.27,95.09,274.83,90.61,280.41,90.61Z"/></g></g></svg>