<svg xmlns="http://www.w3.org/2000/svg" viewBox="0 0 510.16 179.62"><defs><style>.cls-1{fill:#05e6e0;}.cls-2{fill:#e61e21;}.cls-3{fill:#fff;}</style></defs><g id="Layer_2" data-name="Layer 2"><g id="About"><polygon class="cls-1" points="59.12 0 49.2 35.59 277.28 26.69 59.12 0"/><polygon class="cls-1" points="510.16 169.11 451.47 77.59 410.75 143.27 64.97 161.05 31.82 98.02 9.1 179.62 510.16 169.11"/><path class="cls-2" d="M156.74,109.9c0-3.22-2.54-3.22-4.74-3.22h-8.29v6.52H152C154.2,113.2,156.74,113.2,156.74,109.9Z"/><path class="cls-2" d="M196.92,113.45c5.42,0,8.88-4.4,8.88-11.51,0-6.93-3.38-11.33-8.79-11.33-5.59,0-9.14,4.48-9.14,11.59C187.87,109.13,191.34,113.45,196.92,113.45Z"/><path class="cls-2" d="M156.49,94.16c0-3.3-2.45-3.3-4.65-3.3h-8.13v6.52h8.13C154,97.38,156.49,97.38,156.49,94.16Z"/><polygon class="cls-2" points="106.07 92.89 101.59 109.81 110.47 109.81 106.07 92.89"/><path class="cls-2" d="M410.75,143.27,451.47,77.6l36.67-59.15L277.28,26.69,49.2,35.59,0,37.52,31.82,98l33.15,63Zm-51.17-40.14c0,7.7,0,21.49-18,21.49s-18-13.79-18-21.49V80h11.5v24.28c0,4.06,0,9,6.6,9,6.43,0,6.43-4.91,6.43-9V80h11.5Zm23.52,21.49a28.3,28.3,0,0,1-16.84-5.16l4.83-9.56a20.68,20.68,0,0,0,11.5,4.06c3.22,0,4.74-.93,4.74-2.37,0-5-19.88-5.33-19.88-19.37,0-7.36,6-12.78,15.73-12.78a25.94,25.94,0,0,1,15.23,4.82l-4.65,9.39c-3.22-1.94-6.77-3.55-10.66-3.55-2.71,0-3.89,1-3.89,2.2,0,5.16,19.88,4.23,19.88,19C399.09,119.54,392.91,124.62,383.1,124.62ZM269.58,80h31.13V91H290.9v33H279.39V91h-9.81Zm-44.15,0h11.5v24.28c0,4.06,0,9,6.6,9,6.43,0,6.43-4.91,6.43-9V80h11.5v23.1c0,7.7,0,21.49-18,21.49s-18-13.79-18-21.49Zm-28.26-.59c12.44,0,20.48,8.63,20.48,22,0,14-8.21,23.18-20.9,23.18-12.52,0-20.72-8.72-20.72-22.17C176,88.49,184.32,79.44,197.17,79.44Zm-65,.59h18.86c4.83,0,16.58,0,16.58,12,0,4.73-2.19,8.29-5.83,9.72,4.06,1.27,6.6,5,6.6,9.82,0,12.43-11.93,12.43-17,12.43h-19.2ZM98.8,80h14.63l12.78,44H114.28l-1.1-4.14H99L97.87,124H85.94Z"/><path class="cls-3" d="M99,119.88h14.21l1.1,4.14h11.93L113.43,80H98.8L85.94,124H97.87Zm7.1-27,4.4,16.92h-8.88Z"/><path class="cls-3" d="M168.42,111.59c0-4.82-2.54-8.55-6.6-9.82,3.64-1.43,5.83-5,5.83-9.72,0-12-11.75-12-16.58-12H132.21v44h19.2C156.49,124,168.42,124,168.42,111.59ZM143.71,90.86h8.13c2.2,0,4.65,0,4.65,3.3s-2.45,3.22-4.65,3.22h-8.13Zm0,15.82H152c2.2,0,4.74,0,4.74,3.22s-2.54,3.3-4.74,3.3h-8.29Z"/><path class="cls-3" d="M196.75,124.62c12.69,0,20.9-9.14,20.9-23.18,0-13.37-8-22-20.48-22-12.85,0-21.14,9-21.14,23C176,115.9,184.23,124.62,196.75,124.62Zm.26-34c5.41,0,8.79,4.4,8.79,11.33,0,7.11-3.46,11.51-8.88,11.51-5.58,0-9-4.32-9-11.25C187.87,95.09,191.42,90.61,197,90.61Z"/><path class="cls-3" d="M243.44,124.62c18,0,18-13.79,18-21.49V80H250v24.28c0,4.06,0,9-6.43,9-6.6,0-6.6-4.91-6.6-9V80h-11.5v23.1C225.43,110.83,225.43,124.62,243.44,124.62Z"/><polygon class="cls-3" points="279.39 124.02 290.9 124.02 290.9 91.03 300.71 91.03 300.71 80.03 269.58 80.03 269.58 91.03 279.39 91.03 279.39 124.02"/><path class="cls-3" d="M348.08,104.31c0,4.06,0,9-6.43,9-6.6,0-6.6-4.91-6.6-9V80h-11.5v23.1c0,7.7,0,21.49,18,21.49s18-13.79,18-21.49V80h-11.5Z"/><path class="cls-3" d="M379.21,92.3c0-1.18,1.18-2.2,3.89-2.2,3.89,0,7.44,1.61,10.66,3.55l4.65-9.39a25.94,25.94,0,0,0-15.23-4.82c-9.73,0-15.73,5.42-15.73,12.78,0,14,19.88,14.38,19.88,19.37,0,1.44-1.52,2.37-4.74,2.37a20.68,20.68,0,0,1-11.5-4.06l-4.83,9.56a28.3,28.3,0,0,0,16.84,5.16c9.81,0,16-5.08,16-13.29C399.09,96.53,379.21,97.46,379.21,92.3Z"/></g></g></svg>