<svg xmlns="http://www.w3.org/2000/svg" viewBox="0 0 510.16 179.62"><defs><style>.cls-1{fill:#05e6e0;}.cls-2{fill:#e61e21;}.cls-3{fill:#fff;}</style></defs><g id="Layer_2" data-name="Layer 2"><g id="Gallery"><polygon class="cls-1" points="510.16 169.11 9.1 179.62 59.12 0 430.87 45.47 510.16 169.11"/><polygon class="cls-2" points="488.14 18.45 0 37.52 64.97 161.05 410.75 143.27 488.14 18.45"/><path class="cls-3" d="M107.72,102.2c0-13.88,8.54-22.76,22.08-22.76a22,22,0,0,1,13.45,4.06L137.49,93a13.52,13.52,0,0,0-7.61-2.37c-6.43,0-10.32,4.23-10.32,11.76,0,7,3.81,11.08,9.81,11.08a12,12,0,0,0,3.22-.42v-5.84h-4.91V97.12h16.41v22.67c-3.55,3.13-8.71,4.83-14.8,4.83C116,124.62,107.72,116.16,107.72,102.2Z"/><path class="cls-3" d="M163,80h14.64l12.77,44H178.43l-1.1-4.14H163.12L162,124H150.09Zm11.68,29.78-4.4-16.92-4.49,16.92Z"/><path class="cls-3" d="M207.87,80v33h13v11H196.36V80Z"/><path class="cls-3" d="M237.31,80v33h13v11H225.8V80Z"/><path class="cls-3" d="M286.37,80V91H266.74v5.83h14.72V107.1H266.74v6h19.63V124H255.24V80Z"/><path class="cls-3" d="M294.48,80h13.29c9.3,0,23.09,0,23.09,15.74,0,8.12-3.81,12-8.71,14l10,14.29H319l-8.21-12.43H306V124H294.48ZM306,90.86v10.58h5c4.32,0,8,0,8-5.33s-4-5.25-8-5.25Z"/><path class="cls-3" d="M372.06,80,360,106.17V124H348.45V106.17L336.36,80h12.09l5.76,13L360,80Z"/></g></g></svg>