<svg xmlns="http://www.w3.org/2000/svg" viewBox="0 0 510.16 179.62"><defs><style>.cls-1{fill:#05e6e0;}.cls-2{fill:#e61e21;}.cls-3{fill:#fff;}</style></defs><g id="Layer_2" data-name="Layer 2"><g id="Admission"><g id="Admission-2" data-name="Admission"><polygon class="cls-1" points="59.12 0 49.2 35.59 277.28 26.69 59.12 0"/><polygon class="cls-1" points="510.16 169.11 451.47 77.59 410.75 143.27 64.97 161.05 31.82 98.02 9.1 179.62 510.16 169.11"/><path class="cls-2" d="M343,82c-5.59,0-9.14,4.48-9.14,11.59,0,6.94,3.47,11.25,9.05,11.25,5.42,0,8.88-4.4,8.88-11.5C351.81,86.36,348.43,82,343,82Z"/><path class="cls-2" d="M410.75,143.27,451.47,77.6l36.67-59.15L277.28,26.69,49.2,35.59,0,37.52,31.82,98l33.15,63Zm-96.49-27.89H302.75v-44h11.51Zm28.5.59C330.24,116,322,107.25,322,93.8c0-14,8.29-23,21.15-23,12.43,0,20.47,8.63,20.47,22C363.66,106.83,355.45,116,342.76,116Zm64.71-.59H396.05L382.94,93.64v21.74h-11.5v-44h11.5L396,93V71.39h11.5ZM263.25,83.57c0-7.36,6-12.78,15.73-12.78a25.88,25.88,0,0,1,15.23,4.83L289.56,85c-3.22-2-6.77-3.56-10.66-3.56-2.71,0-3.89,1-3.89,2.2,0,5.16,19.88,4.23,19.88,19,0,8.2-6.18,13.28-16,13.28a28.23,28.23,0,0,1-16.84-5.16l4.83-9.56a20.68,20.68,0,0,0,11.5,4.06c3.22,0,4.74-.93,4.74-2.37C283.13,98,263.25,97.61,263.25,83.57Zm-39.25,0c0-7.36,6-12.78,15.73-12.78A25.88,25.88,0,0,1,255,75.62L250.31,85c-3.22-2-6.77-3.56-10.66-3.56-2.71,0-3.89,1-3.89,2.2,0,5.16,19.88,4.23,19.88,19,0,8.2-6.18,13.28-16,13.28a28.2,28.2,0,0,1-16.83-5.16l4.82-9.56a20.68,20.68,0,0,0,11.5,4.06c3.22,0,4.74-.93,4.74-2.37C243.88,98,224,97.61,224,83.57ZM204.63,71.39h11.5v44h-11.5Zm-54,0h11.42l11.51,18.86,11.5-18.86h11.42v44H185V92.87L175.2,109H172l-9.81-16.16v22.59H150.66Zm-44.15,0H118.1c6.26,0,24.78,0,24.78,21.74,0,22.25-17.59,22.25-24.19,22.25H106.51Zm-33.41,0H87.73l12.77,44H88.58l-1.1-4.15H73.27l-1.1,4.15H60.24Z"/><path class="cls-2" d="M131,93.13c0-10.83-7.44-10.83-12.77-10.83H118v22.16h.85C124.44,104.46,131,104.46,131,93.13Z"/><polygon class="cls-2" points="80.37 84.25 75.89 101.16 84.77 101.16 80.37 84.25"/><path class="cls-3" d="M73.27,111.23H87.48l1.1,4.15H100.5l-12.77-44H73.1l-12.86,44H72.17Zm7.1-27,4.4,16.92H75.89Z"/><path class="cls-3" d="M142.88,93.13c0-21.74-18.52-21.74-24.78-21.74H106.51v44h12.18C125.29,115.38,142.88,115.38,142.88,93.13ZM118,82.3h.26c5.33,0,12.77,0,12.77,10.83,0,11.33-6.6,11.33-12.18,11.33H118Z"/><polygon class="cls-3" points="162.17 92.79 171.98 108.95 175.19 108.95 185.01 92.87 185.01 115.38 196.51 115.38 196.51 71.39 185.09 71.39 173.59 90.25 162.08 71.39 150.66 71.39 150.66 115.38 162.17 115.38 162.17 92.79"/><rect class="cls-3" x="204.63" y="71.39" width="11.5" height="43.99"/><path class="cls-3" d="M239.14,105.31a20.68,20.68,0,0,1-11.5-4.06l-4.82,9.56A28.2,28.2,0,0,0,239.65,116c9.81,0,16-5.08,16-13.28,0-14.81-19.88-13.88-19.88-19,0-1.18,1.18-2.2,3.89-2.2,3.89,0,7.44,1.61,10.66,3.56L255,75.62a25.88,25.88,0,0,0-15.23-4.83C230,70.79,224,76.21,224,83.57c0,14,19.88,14.38,19.88,19.37C243.88,104.38,242.36,105.31,239.14,105.31Z"/><path class="cls-3" d="M278.39,105.31a20.68,20.68,0,0,1-11.5-4.06l-4.83,9.56A28.23,28.23,0,0,0,278.9,116c9.81,0,16-5.08,16-13.28,0-14.81-19.88-13.88-19.88-19,0-1.18,1.18-2.2,3.89-2.2,3.89,0,7.44,1.61,10.66,3.56l4.65-9.39A25.88,25.88,0,0,0,279,70.79c-9.73,0-15.73,5.42-15.73,12.78,0,14,19.88,14.38,19.88,19.37C283.13,104.38,281.61,105.31,278.39,105.31Z"/><rect class="cls-3" x="302.75" y="71.39" width="11.5" height="43.99"/><path class="cls-3" d="M343.19,70.79c-12.86,0-21.15,9.06-21.15,23,0,13.45,8.2,22.17,20.72,22.17,12.69,0,20.9-9.14,20.9-23.18C363.66,79.42,355.62,70.79,343.19,70.79Zm-.26,34c-5.58,0-9.05-4.31-9.05-11.25,0-7.11,3.55-11.59,9.14-11.59,5.41,0,8.79,4.4,8.79,11.34C351.81,100.4,348.35,104.8,342.93,104.8Z"/><polygon class="cls-3" points="395.97 93.04 382.94 71.39 371.44 71.39 371.44 115.38 382.94 115.38 382.94 93.64 396.05 115.38 407.47 115.38 407.47 71.39 395.97 71.39 395.97 93.04"/></g></g></g></svg>