<?xml version="1.0" encoding="utf-8"?>
<!-- Generator: Adobe Illustrator 26.0.1, SVG Export Plug-In . SVG Version: 6.00 Build 0)  -->
<svg version="1.1" id="Layer_1" xmlns="http://www.w3.org/2000/svg" xmlns:xlink="http://www.w3.org/1999/xlink" x="0px" y="0px"
	 viewBox="0 0 100 100" style="enable-background:new 0 0 100 100;" xml:space="preserve">
<style type="text/css">
	.st0{fill:#73F4EF;}
	.st1{fill:#EDEB50;}
	.st2{fill:#00EAE1;}
	.st3{fill:#E5E304;}
	.st4{fill:#E9E72A;}
	.st5{fill:#EA4B4E;}
	.st6{fill:#E83437;}
	.st7{fill:#80F5F0;}
	.st8{enable-background:new    ;}
</style>
<g>
	<polygon class="st0" points="33.7,55.6 17.5,47.4 32.9,39.1 49.1,47.3 	"/>
	<polygon class="st1" points="49.8,63.9 33.7,55.6 49.1,47.3 65.5,55.7 	"/>
	<polygon class="st2" points="33.7,77 17.5,68.8 17.5,47.4 33.7,55.6 	"/>
	<polygon class="st3" points="49.9,85.5 33.7,77 33.7,55.6 49.8,63.9 	"/>
	<polygon class="st4" points="49.9,85.5 66,77 65.5,55.7 49.8,63.9 	"/>
	<polygon class="st5" points="49.1,47.3 65.5,39.1 81.4,47.4 65.5,55.7 	"/>
	<polygon class="st6" points="65.5,55.7 81.4,47.4 81.4,68.7 66,77 	"/>
	<g>
		<path class="st2" d="M27.2,42.8v2.6c0,1.7,1.2,3.2,3.1,3.6c1.6,0.3,3.7,0.5,6.1-0.1c1.8-0.5,2.9-1.9,2.9-3.5v-2.6H27.2L27.2,42.8z
			"/>
		<ellipse class="st7" cx="33.3" cy="42.8" rx="6.1" ry="3.2"/>
	</g>
	<g>
		<path class="st6" d="M59.4,42.8v2.6c0,1.7,1.2,3.2,3.1,3.6c1.6,0.3,3.7,0.5,6.1-0.1c1.8-0.5,2.9-1.9,2.9-3.5v-2.6H59.4L59.4,42.8z
			"/>
		<ellipse class="st5" cx="65.5" cy="42.8" rx="6.1" ry="3.2"/>
	</g>
	<g>
		<path class="st3" d="M43.1,51v2.6c0,1.7,1.2,3.2,3.1,3.6c1.6,0.3,3.7,0.5,6.1-0.1c1.8-0.5,2.9-1.9,2.9-3.5V51H43.1L43.1,51z"/>
		<ellipse class="st1" cx="49.1" cy="51" rx="6" ry="3.2"/>
	</g>
</g>
<g class="st8">
	<path d="M12.4,24.9h2.8c1.9,0,5.3,0,5.3,3.2c0,3.3-3.4,3.3-5.3,3.3h-0.1v2.2h-2.7V24.9z M15.1,27v2.2h0.8c0.9,0,1.8,0,1.8-1.1
		c0-1.1-1.1-1.1-1.8-1.1H15.1z"/>
	<path d="M24.3,24.9v6.6h3.1v2.2h-5.8v-8.7H24.3z"/>
	<path d="M31,24.9h3.4l3,8.7h-2.8l-0.3-0.8h-3.3l-0.3,0.8H28L31,24.9z M33.8,30.8l-1-3.4l-1.1,3.4H33.8z"/>
	<path d="M46.8,24.9l-2.8,5.2v3.5h-2.7v-3.5l-2.8-5.2h2.8l1.4,2.6l1.4-2.6H46.8z"/>
	<path d="M63.9,24.9l-2.4,8.7h-1.9l-2.1-4.9l-2.1,4.9h-1.9l-2.4-8.7h2.8l1,4.3l1.7-4.3h1.9l1.7,4.3l1-4.3H63.9z"/>
	<path d="M72.7,24.9v2.2h-4.6v1.2h3.5v2h-3.5v1.2h4.6v2.2h-7.3v-8.7H72.7z"/>
	<path d="M77.3,24.9v6.6h3.1v2.2h-5.8v-8.7H77.3z"/>
	<path d="M84.3,24.9v6.6h3.1v2.2h-5.8v-8.7H84.3z"/>
</g>
</svg>
